# xmcd
#
# Track frame offsets: 
#        150
#        20422
#        25605
#        48557
#        64860
#        86227
#        109575
#        126832
#        144125
#        161995
#
# Disc length: 2518 seconds
#
# Revision: 5
# Processed by: cddbd v1.5.2PL0 Copyright (c) Steve Scherf et al.
# Submitted via: ExactAudioCopy v0.99pb5
#
DISCID=8209d40a
DTITLE=Moore Gary - Dirty Fingers
DYEAR=1987
DGENRE=Hard Rock
TTITLE0=Hiroshima
TTITLE1=Dirty Fingers
TTITLE2=Bad News
TTITLE3=Don't Let Me Be Misunderstood
TTITLE4=Run To Your Mama
TTITLE5=Nuclear Attack
TTITLE6=Kidnapped
TTITLE7=Really Gonna Rock
TTITLE8=Lonely Nights
TTITLE9=Rest In Peace
EXTD=YEAR: 1981
EXTT0=
EXTT1=
EXTT2=
EXTT3=
EXTT4=
EXTT5=
EXTT6=
EXTT7=
EXTT8=
EXTT9=
PLAYORDER=
